# xmcd
#
# Track frame offsets: 
#        150
#        13632
#        27516
#        37556
#        61453
#        75232
#        86668
#        94163
#        108128
#        121369
#        135999
#        148682
#        169844
#        201608
#        217653
#        232400
#
# Disc length: 3393 seconds
#
# Revision: 2
# Processed by: cddbd v1.5.2PL0 Copyright (c) Steve Scherf et al.
# Submitted via: ExactAudioCopyFreeDBPlugin 1.0
#
DISCID=d10d3f10
DTITLE=Pierre Perret - Les dieux paillards
DYEAR=2011
DGENRE=Variété française
TTITLE0=Allons à Messine
TTITLE1=Qu'on m'apporte
TTITLE2=Un dimanche
TTITLE3=Le pou et l'arraignée
TTITLE4=La romance du 14 juillet
TTITLE5=La brandançonne d'une putain
TTITLE6=Là-haut sur la colline
TTITLE7=Le cordonnier pamphile
TTITLE8=Le wagon de pines
TTITLE9=Petite tache noire
TTITLE10=L'invalide à la pine de bois
TTITLE11=Le fils-père
TTITLE12=De profundis morpionibus
TTITLE13=Caroline la putain
TTITLE14=La digue du cul
TTITLE15=Frère la Guillaumette
EXTD=Intégrale 1957 - 2011
EXTT0=
EXTT1=
EXTT2=
EXTT3=
EXTT4=
EXTT5=
EXTT6=
EXTT7=
EXTT8=
EXTT9=
EXTT10=
EXTT11=
EXTT12=
EXTT13=
EXTT14=
EXTT15=
PLAYORDER=
